<svg fill="none"  xmlns="http://www.w3.org/2000/svg" xmlns:xlink="http://www.w3.org/1999/xlink">
    <symbol width="34" height="34" viewBox="0 0 34 34" fill="none" id="telegramIcon">
        <path d="M29.4856 4.92455C28.6125 5.27543 3.83059 15.9045 3.83059 15.9045C3.83059 15.9045 2.63039 16.322 2.72559 17.0931C2.82079 17.8643 3.79999 18.2172 3.79999 18.2172L10.1784 20.4013C10.1784 20.4013 12.1042 26.826 12.4836 28.0452C12.863 29.2665 13.1663 29.2951 13.1663 29.2951C13.5186 29.4515 13.8409 29.2019 13.8409 29.2019L17.9624 25.3789L24.387 30.3899C26.1237 31.161 26.7554 29.5548 26.7554 29.5548L31.1816 6.48583C31.5732 4.70083 30.4077 4.55531 29.4856 4.92455Z" stroke="currentColor" stroke-width="3" stroke-miterlimit="10"/>
        <path d="M10 21.2L27 10L18 24.5" stroke="currentColor" stroke-width="2" stroke-miterlimit="10" stroke-linecap="round" stroke-linejoin="round"/>
    </symbol>
    <symbol width="34" height="34" viewBox="0 0 34 34" fill="none"  id="whatsappIcon">
        <path d="M25.158 19.5368C25.0918 19.5051 22.6131 18.2845 22.1726 18.126C21.9928 18.0614 21.8002 17.9983 21.5953 17.9983C21.2606 17.9983 20.9794 18.1651 20.7604 18.4928C20.5128 18.8608 19.7633 19.737 19.5317 19.9987C19.5014 20.0333 19.4601 20.0746 19.4354 20.0746C19.4132 20.0746 19.0296 19.9166 18.9135 19.8661C16.2545 18.7111 14.2363 15.9336 13.9595 15.4652C13.92 15.3979 13.9184 15.3673 13.918 15.3673C13.9277 15.3317 14.0172 15.242 14.0633 15.1958C14.1983 15.0622 14.3446 14.8861 14.4861 14.7158C14.5531 14.6351 14.6202 14.5543 14.6861 14.4781C14.8914 14.2392 14.9829 14.0538 15.0888 13.839L15.1444 13.7274C15.4031 13.2133 15.1821 12.7795 15.1107 12.6394C15.0521 12.5221 14.0055 9.99621 13.8942 9.73083C13.6266 9.09046 13.273 8.7923 12.7817 8.7923C12.7361 8.7923 12.7817 8.7923 12.5905 8.80036C12.3577 8.81018 11.0899 8.97709 10.5293 9.33045C9.93485 9.70522 8.9292 10.8999 8.9292 13.0008C8.9292 14.8917 10.1291 16.677 10.6443 17.356C10.6571 17.3731 10.6806 17.4079 10.7148 17.4578C12.6877 20.3392 15.1473 22.4745 17.6407 23.4706C20.0411 24.4294 21.1778 24.5403 21.824 24.5403C21.8241 24.5403 21.8241 24.5403 21.8241 24.5403C22.0957 24.5403 22.313 24.5189 22.5048 24.5001L22.6264 24.4885C23.4557 24.415 25.278 23.4707 25.6925 22.3188C26.019 21.4115 26.1051 20.4202 25.8879 20.0604C25.7391 19.8158 25.4827 19.6927 25.158 19.5368Z" fill="currentColor"/>
        <path d="M17.3018 0C8.09352 0 0.60204 7.43518 0.60204 16.5742C0.60204 19.5301 1.39309 22.4236 2.89163 24.9559L0.023377 33.4167C-0.0300516 33.5744 0.00968865 33.7489 0.126371 33.8676C0.210598 33.9536 0.324851 34 0.441533 34C0.486241 34 0.53128 33.9933 0.575215 33.9792L9.39756 31.1758C11.8118 32.4657 14.5404 33.1466 17.3019 33.1466C26.5093 33.1467 34 25.7123 34 16.5742C34 7.43518 26.5093 0 17.3018 0ZM17.3018 29.6941C14.7033 29.6941 12.1866 28.9438 10.0231 27.5242C9.95039 27.4764 9.86594 27.4519 9.78094 27.4519C9.73601 27.4519 9.69097 27.4588 9.64715 27.4727L5.2277 28.8775L6.65437 24.6684C6.70052 24.5322 6.67744 24.382 6.59244 24.2658C4.94499 22.0148 4.07413 19.3552 4.07413 16.5742C4.07413 9.33896 10.008 3.45255 17.3017 3.45255C24.5945 3.45255 30.5277 9.33896 30.5277 16.5742C30.5278 23.8086 24.5947 29.6941 17.3018 29.6941Z" fill="currentColor"/>
    </symbol>
    <symbol width="34" height="34" viewBox="0 0 34 34" fill="none"  id="instagramIcon">
        <circle cx="17" cy="17" r="7.5" stroke="currentColor" stroke-width="3"/>
        <circle cx="26" cy="7" r="2" fill="currentColor"/>
        <rect x="1.5" y="1.5" width="31" height="31" rx="6.5" stroke="currentColor" stroke-width="3"/>
    </symbol>
    <symbol width="48" height="48" viewBox="0 0 48 48" fill="none"  id="phoneIcon">
        <path d="M47.9771 37.8566C48.0788 38.6358 47.8414 39.3134 47.2657 39.8892L40.5074 46.5964C40.2025 46.9352 39.8046 47.2234 39.3134 47.4603C38.8222 47.6975 38.3395 47.8499 37.8654 47.9176C37.8315 47.9176 37.7297 47.9263 37.5602 47.9432C37.3911 47.9601 37.1709 47.9687 36.8999 47.9687C36.256 47.9687 35.2143 47.8586 33.7745 47.6384C32.3348 47.4181 30.5733 46.876 28.4901 46.0123C26.4064 45.1485 24.0436 43.8525 21.4014 42.125C18.7591 40.3976 15.9473 38.0261 12.9662 35.011C10.5949 32.6736 8.63004 30.4377 7.07173 28.3036C5.51343 26.1693 4.26001 24.1961 3.31148 22.3837C2.36286 20.5713 1.65146 18.9283 1.1772 17.4547C0.70293 15.9811 0.381107 14.7107 0.211726 13.6436C0.0423452 12.5765 -0.0254071 11.7381 0.00846904 11.1283C0.0423452 10.5185 0.0592833 10.1798 0.0592833 10.112C0.127036 9.63777 0.279478 9.15503 0.516612 8.66383C0.753745 8.17262 1.04169 7.77458 1.38045 7.46969L8.13875 0.711399C8.61302 0.237133 9.15503 0 9.7648 0C10.2052 0 10.5948 0.127036 10.9335 0.381107C11.2723 0.635178 11.5602 0.948533 11.7974 1.32117L17.2345 11.6365C17.5394 12.1785 17.6241 12.7713 17.4886 13.415C17.3531 14.0586 17.0651 14.6006 16.6247 15.041L14.1348 17.5309C14.0671 17.5987 14.0078 17.7088 13.957 17.8612C13.9062 18.0137 13.8808 18.1407 13.8808 18.2423C14.0163 18.9537 14.3211 19.7667 14.7954 20.6814C15.2019 21.4944 15.8286 22.4853 16.6755 23.654C17.5224 24.8228 18.725 26.1693 20.2834 27.6937C21.8078 29.2522 23.1628 30.4631 24.3485 31.3271C25.5339 32.1906 26.5251 32.826 27.3212 33.2325C28.1173 33.639 28.7271 33.8846 29.1504 33.9691L29.7854 34.0962C29.8532 34.0962 29.9636 34.0707 30.1158 34.02C30.2683 33.9691 30.3784 33.9099 30.4462 33.842L33.3425 30.8948C33.9526 30.3529 34.6637 30.0819 35.4768 30.0819C36.0529 30.0819 36.51 30.1834 36.8487 30.3868H36.8994L46.7065 36.1796C47.4182 36.6203 47.8415 37.1791 47.9771 37.8566Z" fill="currentColor"/>
    </symbol>
</svg>
